<?xml version="1.0" encoding="UTF-8" standalone="no"?><!DOCTYPE svg PUBLIC "-//W3C//DTD SVG 1.1//EN" "http://www.w3.org/Graphics/SVG/1.1/DTD/svg11.dtd"><svg width="100%" height="100%" viewBox="0 0 417 466" version="1.1" xmlns="http://www.w3.org/2000/svg" xmlns:xlink="http://www.w3.org/1999/xlink" xml:space="preserve" xmlns:serif="http://www.serif.com/" style="fill-rule:evenodd;clip-rule:evenodd;stroke-linejoin:round;stroke-miterlimit:2;"><g><path d="M0,231.87c16.688,-30.031 37.304,-52.832 62.81,-66.634c-18.316,-20.118 -29.583,-45.011 -32.036,-75.874c24.506,-11.637 49.243,-14.126 74.188,-8.43c8.548,-30.368 23.873,-57.771 48.896,-80.932c51.055,4.529 85.193,26.04 109.595,57.327c39.341,-17.176 81.623,-15.793 126.456,1.686c8.767,46.586 2.381,89.868 -26.977,128.142c25.901,21.388 43.673,45.63 53.955,72.501c-71.881,59.982 -140.337,54.481 -205.702,-10.116c-67.469,66.862 -137.645,66.422 -211.185,-17.67Zm247.771,-10.343c40.695,65.504 90.225,66.798 145.929,23.217c-50.143,54.305 -102.023,62.407 -156.806,-6.745l10.877,-16.472Zm-87.593,-208.011c76.413,32.293 101.984,100.481 59.012,166.776c18.899,-9.088 34.782,-25.363 39.709,-67.757c23.609,-37.482 54.058,-50.931 93.492,-32.811c-23.808,-25.185 -69.446,-26.897 -95.264,13.489c-9.658,-55.764 -45.958,-77.197 -96.949,-79.697Z" style="fill:#70a94b;"/><path d="M180.411,279.977c-25.441,-35.813 -60.97,-59.657 -121.398,-53.954c68.627,2.143 101.165,57.326 101.165,57.326c-0,0 9.558,14.898 16.86,30.35c17.944,37.966 6.981,54.755 10.219,97.693c0.524,6.948 3.171,45.541 15.467,54.054l0,-0.067l36.699,0c-13.451,-22.359 -19.601,-51.523 -22.659,-76.576c-8.382,-68.675 4.637,-143.679 64.336,-186.451c21.956,-15.73 51.981,-29.127 79.721,-24.383c-35.971,-11.416 -78.167,0.876 -106.053,25.157c-5.331,4.642 -14.455,14.198 -23.775,27.112c-7.718,10.693 -15.512,23.953 -21.919,36.25c-8.465,16.248 -13.489,38.78 -13.489,38.78c0,0 -10.116,-16.861 -15.174,-25.291" style="fill:#680444;"/></g></svg>